<svg data-v-423bf9ae="" xmlns="http://www.w3.org/2000/svg" viewBox="0 0 254 109" class="iconLeft"><!----><!----><!----><g data-v-423bf9ae="" id="039525a1-8261-4105-bdbc-f00c88abdcfc" fill="white" transform="matrix(6.256517105873957,0,0,6.256517105873957,106.71004767998085,8.065105968044847)"><path d="M3.12 10.98L3.12 10.98L3.68 10.98L3.68 12.19L2.37 12.19L2.37 12.19Q0.63 12.19 0.63 10.35L0.63 10.35L0.63 3.74L2.51 3.74L2.51 5.22L3.68 5.22L3.68 6.58L2.51 6.58L2.51 10.30L2.51 10.30Q2.51 10.70 2.66 10.84L2.66 10.84L2.66 10.84Q2.81 10.98 3.12 10.98ZM6.57 4.37L6.57 4.37L6.57 4.37Q6.27 4.66 5.85 4.66L5.85 4.66L5.85 4.66Q5.43 4.66 5.12 4.36L5.12 4.36L5.12 4.36Q4.82 4.06 4.82 3.63L4.82 3.63L4.82 3.63Q4.82 3.21 5.12 2.90L5.12 2.90L5.12 2.90Q5.43 2.60 5.85 2.60L5.85 2.60L5.85 2.60Q6.27 2.60 6.57 2.90L6.57 2.90L6.57 2.90Q6.87 3.21 6.87 3.64L6.87 3.64L6.87 3.64Q6.87 4.07 6.57 4.37ZM6.79 12.05L4.91 12.05L4.91 5.22L6.79 5.22L6.79 12.05ZM9.98 6.71L9.98 12.05L8.11 12.05L8.11 5.22L9.81 5.22L9.81 5.57L9.81 5.57Q10.25 5.08 11.13 5.08L11.13 5.08L11.42 5.08L11.42 5.08Q13.16 5.08 13.16 6.93L13.16 6.93L13.16 12.05L11.28 12.05L11.28 6.71L11.28 6.71Q11.28 6.59 11.21 6.51L11.21 6.51L11.21 6.51Q11.13 6.43 11.02 6.43L11.02 6.43L10.25 6.43L10.25 6.43Q10.14 6.43 10.06 6.51L10.06 6.51L10.06 6.51Q9.98 6.59 9.98 6.71L9.98 6.71ZM16.93 10.98L16.93 10.98L17.49 10.98L17.49 12.19L16.17 12.19L16.17 12.19Q14.43 12.19 14.43 10.35L14.43 10.35L14.43 3.74L16.31 3.74L16.31 5.22L17.49 5.22L17.49 6.58L16.31 6.58L16.31 10.30L16.31 10.30Q16.31 10.70 16.46 10.84L16.46 10.84L16.46 10.84Q16.62 10.98 16.93 10.98ZM21.94 5.73L21.94 5.22L23.52 5.22L23.52 12.05L21.94 12.05L21.94 11.55L21.94 11.55Q21.50 12.19 20.50 12.19L20.50 12.19L20.20 12.19L20.20 12.19Q18.47 12.19 18.47 10.35L18.47 10.35L18.47 6.93L18.47 6.93Q18.47 5.08 20.20 5.08L20.20 5.08L20.50 5.08L20.50 5.08Q21.50 5.08 21.94 5.73L21.94 5.73ZM21.64 10.57L21.64 10.57L21.64 6.71L21.64 6.71Q21.64 6.59 21.57 6.51L21.57 6.51L21.57 6.51Q21.49 6.43 21.38 6.43L21.38 6.43L20.61 6.43L20.61 6.43Q20.50 6.43 20.42 6.51L20.42 6.51L20.42 6.51Q20.34 6.59 20.34 6.71L20.34 6.71L20.34 10.57L20.34 10.57Q20.34 10.68 20.42 10.77L20.42 10.77L20.42 10.77Q20.50 10.85 20.61 10.85L20.61 10.85L21.38 10.85L21.38 10.85Q21.49 10.85 21.57 10.77L21.57 10.77L21.57 10.77Q21.64 10.68 21.64 10.57Z"></path></g><!----><g data-v-423bf9ae="" id="985bda7b-2231-4ef7-a736-8271a8703044" transform="matrix(1.0988079494900174,0,0,1.0988079494900174,0.6741720835367815,0.6679490561894568)" stroke="none" fill="white"><path d="M42.5 82.5L32 72l-2.8 2.7-3.6-3.6 6.4-6.4 10.5 10.5 32.7-32.7L40 7.3 7.3 40l10.6 10.6-6.4 6.4-3.7-3.7 2.7-2.7L0 40 40 0l42.5 42.5z"></path><path d="M71.3 42.8L44.1 15.6 29.7 49.3 23.5 64c-1.4 3.4-2.4 6.9-2.9 10.5l-2.5 18.8c-.2 1.4.3 2.8 1.2 3.8l.3.3c2 2.1 5.4 2 7.2-.4.7-1 1.1-2.2.9-3.5l-3.4-24.2 7.7-7.7L42.1 72l5.2-5.2 24-24z"></path></g><!----></svg>