<svg data-v-423bf9ae="" xmlns="http://www.w3.org/2000/svg" viewBox="0 0 250 112" class="iconLeft"><!----><!----><!----><g data-v-423bf9ae="" id="f8de18a9-b0b9-42b5-b8ac-88cf804c5ad0" fill="white" transform="matrix(5.1635112384610125,0,0,5.1635112384610125,101.7141089096781,7.639280560087535)"><path d="M3.78 13.38C3.00 13.38 2.70 13.08 2.70 12.01L2.70 8.55L4.38 8.55L4.38 6.92L2.70 6.92L2.70 4.97L0.77 4.97L0.77 11.96C0.77 14.07 1.39 15.09 3.33 15.09C3.77 15.09 4.20 15.04 4.38 14.99L4.38 13.31C4.21 13.36 3.99 13.38 3.78 13.38ZM7.77 6.51L5.88 6.51L5.88 14.92L7.77 14.92ZM7.77 3.47L5.88 3.47L5.88 5.28L7.77 5.28ZM9.51 6.51L9.51 14.92L11.40 14.92L11.40 9.42C11.40 8.44 11.89 8.01 12.68 8.01C13.62 8.01 13.93 8.47 13.93 9.58L13.93 14.92L15.82 14.92L15.82 9.38C15.82 7.34 15.08 6.34 13.26 6.34C12.36 6.34 11.66 6.59 11.23 7.10L11.14 6.51ZM20.40 13.38C19.61 13.38 19.32 13.08 19.32 12.01L19.32 8.55L21 8.55L21 6.92L19.32 6.92L19.32 4.97L17.39 4.97L17.39 11.96C17.39 14.07 18.00 15.09 19.95 15.09C20.38 15.09 20.82 15.04 21 14.99L21 13.31C20.83 13.36 20.61 13.38 20.40 13.38ZM26.87 14.92L28.53 14.92L28.53 9.24C28.53 7.07 27.31 6.34 25.52 6.34C23.55 6.34 22.51 7.17 22.51 9.24L24.21 9.24C24.21 8.26 24.65 7.90 25.51 7.90C26.33 7.90 26.74 8.32 26.74 9.28L26.74 10.14C26.35 10.09 25.89 10.05 25.52 10.05C23.23 10.05 22.26 11.00 22.26 12.70C22.26 14.25 23.25 15.09 24.68 15.09C25.62 15.09 26.35 14.80 26.80 14.28ZM26.74 12.05C26.74 13.01 26.05 13.54 25.28 13.54C24.51 13.54 24.12 13.19 24.12 12.54C24.12 11.77 24.54 11.37 25.68 11.37C25.94 11.37 26.45 11.40 26.74 11.45Z"></path></g><!----><g data-v-423bf9ae="" id="6f0d5960-af34-4442-9eea-434c46668436" transform="matrix(1.1111222161187067,0,0,1.1111222161187067,-47.634928650801896,-35.08279626274194)" stroke="none" fill="white"><switch><g><path d="M120.225 31.732c-19.529.289-38.007 9.201-51.185 23.501a75.124 75.124 0 0 0-4.506 5.381c-1.15 1.511-1.221 3.34-1.466 5.189-.193-.802-.373-1.607-.55-2.413-4.981 7.397-8.908 15.526-10.515 24.356-.449 2.469-.721 4.968-.759 7.478a45.029 45.029 0 0 0 .085 3.486c.07 1.129-.512 1.984-.967 3.014a88.112 88.112 0 0 0-4.761 13.78c-1.36 5.311-2.216 10.753-2.496 16.229 1.486-5.579 3.17-11.107 5.186-16.519a125.198 125.198 0 0 1 3.224-7.829c.588-1.305 1.221-2.587 1.844-3.874.291-.601.559-1.487 1.016-1.979.339-.364-.102-.289.557-.337.432-.031.949.116 1.396.12 5.48.045 11.249-1.233 16.47-2.806 3.749-1.129 7.21-2.836 10.704-4.252 2.368-.959 4.735-1.92 7.102-2.88-3.711.229-7.456.631-11.175.611a499.646 499.646 0 0 0 7.324-1.663 225.73 225.73 0 0 0 3.63-.885c1.631-.411 2.621-.958 3.951-1.969 5.474-4.162 9.936-9.709 13.68-15.433a77.767 77.767 0 0 0 8.821-18.314c2.337-7.137 3.409-14.491 3.39-21.992zM91.079 86.476c-.017.01-.03.018 0 0zm23.663-33.269c-2.449 7.087-5.983 13.812-10.392 19.873-2.247 3.09-4.712 6.03-7.457 8.688-1.352 1.309-2.775 2.572-4.298 3.676-.806.585-1.361.974-2.307 1.219-5.535 1.438-11.412 2.52-17.129 3.705a6571.52 6571.52 0 0 0-8.376 1.742c2.676.793 5.344 1.712 8.092 2.224-5.235 1.252-10.532 2.028-15.899 2.388a117.14 117.14 0 0 1 25.812-30.933c2.875-2.433 5.854-4.739 8.997-6.818-6.537 2.481-12.574 6.627-17.88 11.128a87.288 87.288 0 0 0-13.718 14.66 88.24 88.24 0 0 0-6.373 9.974c-.609-10.128 2.947-20.097 8.225-28.612.433 1.742.946 3.46 1.448 5.183.121-1.082.24-2.164.367-3.243.147-1.263.303-2.525.495-3.781.137-.894.186-1.843.701-2.599 2.481-3.643 5.703-6.943 8.92-9.932 7.457-6.927 16.327-12.262 26.042-15.346a59.338 59.338 0 0 1 18.32-2.788c-.151 6.666-1.418 13.292-3.59 19.592-2.28 6.598 2.173-6.304 0 0z"></path></g></switch></g><!----></svg>