<svg data-v-423bf9ae="" xmlns="http://www.w3.org/2000/svg" viewBox="0 0 143.33907316151164 60" class="font"><!----><!----><!----><g data-v-423bf9ae="" id="b6cbb6e5-7602-4f32-9867-8a4ddd96dac7" fill="black" transform="matrix(5.1635112384610125,0,0,5.1635112384610125,-3.975904975819944,-17.91738486044469)"><path d="M3.78 13.38C3.00 13.38 2.70 13.08 2.70 12.01L2.70 8.55L4.38 8.55L4.38 6.92L2.70 6.92L2.70 4.97L0.77 4.97L0.77 11.96C0.77 14.07 1.39 15.09 3.33 15.09C3.77 15.09 4.20 15.04 4.38 14.99L4.38 13.31C4.21 13.36 3.99 13.38 3.78 13.38ZM7.77 6.51L5.88 6.51L5.88 14.92L7.77 14.92ZM7.77 3.47L5.88 3.47L5.88 5.28L7.77 5.28ZM9.51 6.51L9.51 14.92L11.40 14.92L11.40 9.42C11.40 8.44 11.89 8.01 12.68 8.01C13.62 8.01 13.93 8.47 13.93 9.58L13.93 14.92L15.82 14.92L15.82 9.38C15.82 7.34 15.08 6.34 13.26 6.34C12.36 6.34 11.66 6.59 11.23 7.10L11.14 6.51ZM20.40 13.38C19.61 13.38 19.32 13.08 19.32 12.01L19.32 8.55L21 8.55L21 6.92L19.32 6.92L19.32 4.97L17.39 4.97L17.39 11.96C17.39 14.07 18.00 15.09 19.95 15.09C20.38 15.09 20.82 15.04 21 14.99L21 13.31C20.83 13.36 20.61 13.38 20.40 13.38ZM26.87 14.92L28.53 14.92L28.53 9.24C28.53 7.07 27.31 6.34 25.52 6.34C23.55 6.34 22.51 7.17 22.51 9.24L24.21 9.24C24.21 8.26 24.65 7.90 25.51 7.90C26.33 7.90 26.74 8.32 26.74 9.28L26.74 10.14C26.35 10.09 25.89 10.05 25.52 10.05C23.23 10.05 22.26 11.00 22.26 12.70C22.26 14.25 23.25 15.09 24.68 15.09C25.62 15.09 26.35 14.80 26.80 14.28ZM26.74 12.05C26.74 13.01 26.05 13.54 25.28 13.54C24.51 13.54 24.12 13.19 24.12 12.54C24.12 11.77 24.54 11.37 25.68 11.37C25.94 11.37 26.45 11.40 26.74 11.45Z"></path></g><!----><!----></svg>